<svg xmlns="http://www.w3.org/2000/svg" width="20" height="20" viewBox="0 0 24 24" fill="#00A1D6"><path d="M17.813 4.653h.854c1.51.054 2.769.578 3.773 1.574 1.004.995 1.524 2.249 1.56 3.76v7.36c-.036 1.51-.556 2.769-1.56 3.773s-2.262 1.524-3.773 1.56H5.333c-1.51-.036-2.769-.556-3.773-1.56S.036 18.858 0 17.347v-7.36c.036-1.511.556-2.765 1.56-3.76 1.004-.996 2.262-1.52 3.773-1.574h.774l-1.174-1.12a1.234 1.234 0 0 1-.373-.906c0-.356.124-.658.373-.907l.027-.027c.267-.249.573-.373.92-.373.347 0 .653.124.92.373L8.44 4.147c.026.026.049.06.066.094a1.216 1.216 0 0 1 .373-.013h.454l1.946-1.867c.267-.249.573-.373.92-.373.347 0 .662.151.929.4.267.249.391.551.391.907 0 .355-.124.657-.373.906l-1.173 1.12h.026zm-6.4 5.333c0-.338-.107-.64-.32-.907-.213-.267-.489-.445-.827-.533H5.333c-.338.089-.614.267-.827.533-.213.267-.32.57-.32.907V14.4c0 .347.107.649.32.907.213.258.489.436.827.533h4.933c.338-.097.614-.275.827-.533.213-.258.32-.56.32-.907v-4.414zm8.534 0c0-.338-.106-.64-.32-.907-.213-.267-.49-.445-.826-.533h-4.934c-.337.089-.613.267-.826.533-.213.267-.32.57-.32.907V14.4c0 .347.107.649.32.907.213.258.49.436.826.533h4.934c.336-.097.613-.275.826-.533.214-.258.32-.56.32-.907v-4.414z"/></svg>
