<svg xmlns="http://www.w3.org/2000/svg" width="20" height="20" viewBox="0 0 20 20" fill="#000000"><path d="M 0 0 C 0 0 20 0 20 0 C 20 0 20 20 20 20 C 20 20 0 20 0 20 C 0 20 0 0 0 0 Z" /><path fill="#53FC18" d="M 1.2 7.2 C 1.2 7.2 3.09 7.2 3.09 7.2 C 3.09 7.2 3.09 8.46 3.09 8.46 C 3.09 8.46 3.71 8.46 3.71 8.46 C 3.71 8.46 3.71 7.83 3.71 7.83 C 3.71 7.83 4.34 7.83 4.34 7.83 C 4.34 7.83 4.34 7.2 4.34 7.2 C 4.34 7.2 6.23 7.2 6.23 7.2 C 6.23 7.2 6.23 9.08 6.23 9.08 C 6.23 9.08 5.6 9.08 5.6 9.08 C 5.6 9.08 5.6 9.71 5.6 9.71 C 5.6 9.71 4.97 9.71 4.97 9.71 C 4.97 9.71 4.97 10.34 4.97 10.34 C 4.97 10.34 5.6 10.34 5.6 10.34 C 5.6 10.34 5.6 10.97 5.6 10.97 C 5.6 10.97 6.23 10.97 6.23 10.97 C 6.23 10.97 6.23 12.85 6.23 12.85 C 6.23 12.85 4.34 12.85 4.34 12.85 C 4.34 12.85 4.34 12.22 4.34 12.22 C 4.34 12.22 3.71 12.22 3.71 12.22 C 3.71 12.22 3.71 11.6 3.71 11.6 C 3.71 11.6 3.09 11.6 3.09 11.6 C 3.09 11.6 3.09 12.85 3.09 12.85 C 3.09 12.85 1.2 12.85 1.2 12.85 C 1.2 12.85 1.2 7.2 1.2 7.2 Z M 13.77 7.2 C 13.77 7.2 15.66 7.2 15.66 7.2 C 15.66 7.2 15.66 8.46 15.66 8.46 C 15.66 8.46 16.29 8.46 16.29 8.46 C 16.29 8.46 16.29 7.83 16.29 7.83 C 16.29 7.83 16.91 7.83 16.91 7.83 C 16.91 7.83 16.91 7.2 16.91 7.2 C 16.91 7.2 18.8 7.2 18.8 7.2 C 18.8 7.2 18.8 9.08 18.8 9.08 C 18.8 9.08 18.17 9.08 18.17 9.08 C 18.17 9.08 18.17 9.71 18.17 9.71 C 18.17 9.71 17.54 9.71 17.54 9.71 C 17.54 9.71 17.54 10.34 17.54 10.34 C 17.54 10.34 18.17 10.34 18.17 10.34 C 18.17 10.34 18.17 10.97 18.17 10.97 C 18.17 10.97 18.8 10.97 18.8 10.97 C 18.8 10.97 18.8 12.85 18.8 12.85 C 18.8 12.85 16.91 12.85 16.91 12.85 C 16.91 12.85 16.91 12.22 16.91 12.22 C 16.91 12.22 16.29 12.22 16.29 12.22 C 16.29 12.22 16.29 11.6 16.29 11.6 C 16.29 11.6 15.66 11.6 15.66 11.6 C 15.66 11.6 15.66 12.85 15.66 12.85 C 15.66 12.85 13.77 12.85 13.77 12.85 C 13.77 12.85 13.77 7.2 13.77 7.2 Z M 6.86 7.2 C 6.86 7.2 8.74 7.2 8.74 7.2 C 8.74 7.2 8.74 12.85 8.74 12.85 C 8.74 12.85 6.86 12.85 6.86 12.85 C 6.86 12.85 6.86 7.2 6.86 7.2 Z M 10 7.2 C 10 7.2 10 7.83 10 7.83 C 10 7.83 9.37 7.83 9.37 7.83 C 9.37 7.83 9.37 12.22 9.37 12.22 C 9.37 12.22 10 12.22 10 12.22 C 10 12.22 10 12.85 10 12.85 C 10 12.85 13.14 12.85 13.14 12.85 C 13.14 12.85 13.14 10.97 13.14 10.97 C 13.14 10.97 11.26 10.97 11.26 10.97 C 11.26 10.97 11.26 9.08 11.26 9.08 C 11.26 9.08 13.14 9.08 13.14 9.08 C 13.14 9.08 13.14 7.2 13.14 7.2 C 13.14 7.2 10 7.2 10 7.2 Z" /></svg>
