<svg xmlns="http://www.w3.org/2000/svg" width="20" height="20" viewBox="0 0 20 20" fill="#444444"><path d="M 9.2 0.07 C 9.2 0.07 9.37 0.08 9.37 0.08 C 11.04 0.17 12.37 1.56 12.37 3.26 C 12.37 3.26 12.37 3.26 12.37 3.26 C 12.37 3.26 12.36 3.44 12.36 3.44 C 12.29 4.75 11.43 5.84 10.25 6.25 C 10.25 6.25 10.25 6.25 10.25 6.25 C 10.25 6.25 10.25 6.94 10.25 6.94 C 10.25 6.94 12.53 6.94 12.53 6.94 C 12.53 6.94 12.72 6.94 12.72 6.94 C 15.47 7.06 17.61 9.81 17.62 13.3 C 17.62 13.3 17.62 13.3 17.62 13.3 C 17.62 13.3 17.62 13.37 17.62 13.37 C 17.62 13.37 17.62 13.6 17.62 13.6 C 17.51 17.06 15.32 19.73 12.53 19.73 C 12.53 19.73 12.53 19.73 12.53 19.73 C 12.53 19.73 4.61 19.73 4.61 19.73 C 4.61 19.73 4.49 19.72 4.49 19.72 C 3.85 19.67 3.34 19.18 3.34 18.52 C 3.34 18.52 3.34 18.52 3.34 18.52 C 3.34 18.52 3.35 18.4 3.35 18.4 C 3.41 17.76 3.95 17.33 4.62 17.33 C 4.62 17.33 4.62 17.33 4.62 17.33 C 4.62 17.33 12.63 17.33 12.63 17.33 C 12.63 17.33 12.77 17.32 12.77 17.32 C 14.11 17.21 15.23 15.38 15.23 13.33 C 15.23 13.33 15.23 13.33 15.23 13.33 C 15.23 13.33 15.23 13.12 15.23 13.12 C 15.15 11.09 13.99 9.41 12.63 9.41 C 12.63 9.41 12.63 9.41 12.63 9.41 C 12.63 9.41 4.61 9.41 4.61 9.41 C 4.61 9.41 4.49 9.4 4.49 9.4 C 3.85 9.35 3.34 8.86 3.33 8.2 C 3.33 8.2 3.33 8.2 3.33 8.2 C 3.33 8.2 3.33 8.17 3.33 8.17 C 3.33 8.17 3.34 8.05 3.34 8.05 C 3.41 7.41 3.96 6.94 4.61 6.94 C 4.61 6.94 4.61 6.94 4.61 6.94 C 4.61 6.94 8.16 6.94 8.16 6.94 C 8.16 6.94 8.16 6.26 8.16 6.26 C 8.16 6.26 8 6.2 8 6.2 C 6.85 5.72 6.03 4.59 6.03 3.26 C 6.03 1.5 7.45 0.07 9.2 0.07 C 9.2 0.07 9.2 0.07 9.2 0.07 Z M 9.23 14.22 C 9.23 14.22 9.29 14.27 9.29 14.27 C 9.29 14.27 10.44 15.54 10.44 15.54 C 10.58 15.69 10.49 15.93 10.3 15.97 C 10.3 15.97 10.24 15.98 10.24 15.98 C 10.24 15.98 7.8 15.98 7.8 15.98 C 7.6 15.98 7.48 15.76 7.57 15.59 C 7.57 15.59 7.61 15.54 7.61 15.54 C 7.61 15.54 8.76 14.27 8.76 14.27 C 8.88 14.13 9.09 14.12 9.23 14.22 Z M 5.45 11.88 C 6.07 11.88 6.57 12.38 6.57 13.01 C 6.57 13.63 6.07 14.14 5.45 14.14 C 4.83 14.14 4.33 13.63 4.33 13.01 C 4.33 12.38 4.83 11.88 5.45 11.88 Z M 12.49 10.86 C 13.11 10.86 13.61 11.36 13.61 11.99 C 13.61 12.61 13.11 13.12 12.49 13.12 C 11.87 13.12 11.36 12.61 11.36 11.99 C 11.36 11.36 11.87 10.86 12.49 10.86 Z M 9.21 2.07 C 9.21 2.07 9.1 2.08 9.1 2.08 C 8.49 2.13 8.02 2.65 8.02 3.27 C 8.02 3.93 8.55 4.47 9.21 4.47 C 9.21 4.47 9.21 4.47 9.21 4.47 C 9.21 4.47 9.33 4.46 9.33 4.46 C 9.93 4.4 10.4 3.89 10.4 3.27 C 10.4 3.27 10.4 3.27 10.4 3.27 C 10.4 3.27 10.4 3.15 10.4 3.15 C 10.34 2.55 9.83 2.07 9.21 2.07 C 9.21 2.07 9.21 2.07 9.21 2.07 Z"></path></svg>
