<svg xmlns="http://www.w3.org/2000/svg" width="20" height="20" viewBox="0 0 20 20" fill="#000000">
<path d="M 11.97 19.29 C 11.39 19.42 11.12 19.44 10.26 19.46 C 9.12 19.48 8.52 19.42 7.65 19.18 C 4.11 18.21 1.53 15.51 0.74 11.93 C 0.59 11.26 0.53 9.52 0.62 8.8 C 0.78 7.58 1.18 6.39 1.79 5.34 C 2.23 4.56 2.56 4.12 3.23 3.44 C 4.56 2.05 6.08 1.2 7.97 0.77 C 8.88 0.56 10.48 0.51 11.48 0.65 C 13.9 0.97 15.36 1.92 16.83 3.44 C 17.54 4.17 18.01 4.83 18.48 5.76 C 19.23 7.26 19.53 8.65 19.47 10.39 C 19.36 13.43 17.83 16.16 15.27 17.89 C 14.26 18.57 13.24 19 11.97 19.29 Z M 6.07 14.9 C 6.66 15.65 7.54 16.22 8.43 16.34 C 9.29 16.46 10.42 16.21 11.07 15.76 C 11.95 15.14 12.37 14.58 12.69 13.63 C 12.82 13.24 12.83 13.17 12.84 10.73 C 12.84 10.73 12.86 8.22 12.86 8.22 C 12.86 8.22 13.13 8.42 13.13 8.42 C 13.73 8.86 14.43 9.11 15.18 9.18 C 15.18 9.18 15.65 9.22 15.65 9.22 C 15.65 9.22 15.71 9.06 15.71 9.06 C 15.78 8.89 15.79 7.77 15.73 7.35 C 15.71 7.14 15.68 7.09 15.61 7.11 C 15.57 7.13 15.44 7.13 15.34 7.11 C 15.15 7.07 15.14 7.06 15.14 6.83 C 15.14 6.83 15.14 6.58 15.14 6.58 C 15.14 6.58 14.73 6.56 14.73 6.56 C 14.15 6.53 13.65 6.3 13.42 5.96 C 13.14 5.56 12.96 5.11 12.89 4.64 C 12.89 4.64 12.82 4.2 12.82 4.2 C 12.82 4.2 12.26 4.19 12.26 4.19 C 12.26 4.19 12.22 3.66 12.22 3.66 C 12.22 3.66 10.12 3.66 10.12 3.66 C 10.12 3.66 10.1 8.07 10.1 8.07 C 10.09 12.45 10.08 12.49 9.96 12.75 C 9.81 13.07 9.46 13.44 9.13 13.61 C 8.79 13.79 8.02 13.81 7.72 13.64 C 7.43 13.44 7.26 13.19 7.21 12.56 C 7.05 11.1 8.52 10.72 9.23 10.8 C 9.23 10.8 9.49 10.81 9.49 10.81 C 9.49 10.81 9.49 8.69 9.49 8.69 C 9.49 8.69 8.86 8.69 8.86 8.69 C 8.86 8.69 8.86 8.17 8.86 8.17 C 8.86 8.17 8.61 8.16 8.61 8.16 C 7.38 8.12 6.43 8.48 5.59 9.31 C 5.35 9.56 5.07 9.9 4.96 10.11 C 4.13 11.63 4.38 13.42 5.44 14.49 C 5.6 14.64 5.9 14.82 6.07 14.9 Z" />
<path fill="#25F4EE" d="M 12.82 4.2 C 12.82 4.2 10.77 4.2 10.77 4.2 C 10.77 4.2 10.71 13.06 10.71 13.06 C 10.71 13.06 10.59 13.3 10.59 13.3 C 10.39 13.66 10.13 13.93 9.81 14.1 C 9.55 14.24 9.45 14.26 8.97 14.26 C 8.32 14.26 8.07 14.15 7.64 13.69 C 7.58 13.63 7.49 13.45 7.44 13.37 C 7.49 13.43 7.67 13.59 7.74 13.63 C 8.03 13.8 8.79 13.79 9.13 13.61 C 9.46 13.44 9.81 13.07 9.96 12.75 C 10.08 12.49 10.09 12.45 10.1 8.07 C 10.1 8.07 10.12 3.66 10.12 3.66 C 10.12 3.66 12.22 3.66 12.22 3.66 C 12.22 3.66 12.26 4.19 12.26 4.19 C 12.26 4.19 12.82 4.2 12.82 4.2 Z M 6.13 14.93 C 4.25 14.01 4.13 11.63 4.96 10.11 C 5.07 9.9 5.35 9.56 5.59 9.31 C 6.43 8.48 7.38 8.12 8.61 8.16 C 8.61 8.16 8.86 8.17 8.86 8.17 C 8.86 8.17 8.86 8.69 8.86 8.69 C 8.86 8.69 8.92 8.69 8.92 8.69 C 7.51 8.69 6.2 9.49 5.55 10.74 C 5 11.46 5.15 13.13 5.41 13.73 C 5.54 14.15 5.71 14.49 6.13 14.93 Z M 15.32 7.11 C 15.27 7.1 15.23 7.09 15.18 7.09 C 14.55 6.98 13.97 6.62 13.55 6.11 C 13.81 6.37 14.24 6.53 14.73 6.56 C 14.73 6.56 15.14 6.58 15.14 6.58 C 15.14 6.58 15.14 6.83 15.14 6.83 C 15.14 7.05 15.15 7.07 15.32 7.11 Z M 13.02 5.16 C 12.97 5.01 12.93 4.86 12.9 4.7 C 12.93 4.86 12.97 5.01 13.02 5.16 Z M 15.63 7.11 C 15.67 7.1 15.69 7.13 15.71 7.21 C 15.69 7.13 15.67 7.11 15.63 7.11 Z" />
<path fill="#FE2C55" d="M 8.43 16.34 C 7.56 16.22 6.59 15.61 6.12 14.94 C 7.18 15.78 8.73 16.21 10.34 15.3 C 10.86 14.99 11.49 14.33 11.76 13.8 C 12.2 12.91 12.19 13.01 12.21 10.21 C 12.21 10.21 12.24 7.71 12.24 7.71 C 12.24 7.71 12.51 7.91 12.51 7.91 C 13.16 8.45 13.97 8.65 14.72 8.63 C 14.72 8.63 15.14 8.63 15.14 8.63 C 15.14 8.63 15.14 7.1 15.14 7.1 C 15.14 7.1 14.9 7.03 14.9 7.03 C 14.5 6.91 13.85 6.6 13.61 6.46 C 12.9 5.87 12.53 5.29 12.3 4.63 C 12.3 4.63 12.23 4.2 12.23 4.2 C 12.23 4.2 12.82 4.2 12.82 4.2 C 12.82 4.2 12.89 4.64 12.89 4.64 C 12.89 4.66 12.97 5.01 13.02 5.16 C 13.02 5.16 13.02 5.16 13.02 5.16 C 13.11 5.44 13.37 5.96 13.55 6.11 C 13.97 6.62 14.55 6.98 15.18 7.09 C 15.23 7.09 15.27 7.1 15.32 7.11 C 15.33 7.11 15.57 7.13 15.61 7.11 C 15.62 7.11 15.63 7.11 15.63 7.11 C 15.67 7.11 15.69 7.13 15.71 7.21 C 15.71 7.21 15.71 7.21 15.71 7.21 C 15.72 7.24 15.73 7.29 15.73 7.35 C 15.79 7.77 15.78 8.89 15.71 9.06 C 15.71 9.06 15.65 9.22 15.65 9.22 C 15.65 9.22 15.18 9.18 15.18 9.18 C 14.43 9.11 13.73 8.86 13.13 8.42 C 13.13 8.42 12.86 8.22 12.86 8.22 C 12.86 8.22 12.84 10.73 12.84 10.73 C 12.83 13.17 12.82 13.24 12.69 13.63 C 12.37 14.58 11.95 15.14 11.07 15.76 C 10.42 16.21 9.29 16.46 8.43 16.34 Z M 6.8 11.39 C 6.99 10.88 7.4 10.63 7.68 10.5 C 8.1 10.31 8.85 10.26 8.85 10.26 C 8.85 10.26 8.87 9.47 8.87 9.47 C 8.87 9.47 8.89 8.69 8.89 8.69 C 8.9 8.69 8.91 8.69 8.92 8.69 C 8.92 8.69 9.49 8.69 9.49 8.69 C 9.49 8.69 9.49 10.81 9.49 10.81 C 9.49 10.81 7.96 10.59 7.32 11.7 C 7.13 12.25 7.26 12.97 7.29 13.08 C 7.3 13.15 7.55 13.64 7.76 13.84 C 8.12 14.18 8.43 14.25 8.85 14.25 C 8.62 14.25 8.32 14.22 7.79 14.1 C 7.35 13.88 7.13 13.58 7.07 13.49 C 6.85 13.19 6.77 12.82 6.71 12.71 C 6.71 12.71 6.6 12.25 6.8 11.39 Z" />
</svg>
