<svg xmlns="http://www.w3.org/2000/svg" width="20" height="20" viewBox="0 0 1200 1200" fill="#79f8a3"><path d="M 70.13,1057.00 C 65.33,1045.33 56.67,1013.33 56.00,989.00 56.00,989.00 56.00,210.00 56.00,210.00 57.33,177.33 67.33,144.67 81.52,122.00 89.33,114.00 98.26,95.33 124.67,80.67 154.28,63.83 182.00,58.67 207.00,56.00 207.00,56.00 994.00,56.00 994.00,56.00 1001.92,56.04 1046.33,62.01 1078.67,84.00 1110.26,105.48 1129.88,143.00 1129.88,143.00 1135.33,154.00 1144.00,191.33 1144.00,209.00 1144.00,209.00 1144.67,902.67 1144.00,990.00 1140.67,1030.67 1128.00,1058.67 1117.65,1079.00 1095.33,1104.67 1054.67,1132.67 1033.00,1138.25 1023.54,1140.57 900.39,1146.51 896.85,1141.82 895.10,1139.49 849.33,944.67 845.72,934.05 847.00,928.00 917.33,886.00 953.55,780.33 967.18,742.59 977.33,710.13 980.09,670.00 986.00,567.67 962.67,516.00 939.00,464.67 907.00,400.33 826.67,320.00 775.33,302.00 759.66,297.33 730.70,285.22 719.33,272.67 710.17,263.90 704.14,250.92 708.67,238.67 710.78,232.94 719.97,224.15 720.00,221.33 723.16,205.46 657.85,223.05 642.95,233.47 626.67,242.00 616.82,261.91 611.55,259.64 609.55,258.45 607.50,229.50 612.00,213.00 625.50,178.50 621.15,154.31 600.00,163.50 592.92,164.59 489.31,259.78 487.00,263.00 438.35,306.49 437.16,287.25 402.00,313.50 391.73,319.48 349.50,340.50 289.50,423.00 237.00,496.50 217.95,584.35 220.50,585.00 210.00,667.50 222.00,726.00 243.95,788.00 265.50,840.00 349.76,938.24 349.35,934.04 349.93,937.95 351.11,949.74 349.91,954.00 349.91,954.00 304.99,1140.14 302.49,1142.60 299.05,1145.98 182.67,1144.00 160.00,1135.33 139.33,1129.33 121.33,1118.00 107.17,1107.77 96.67,1100.00 77.33,1072.67 70.13,1057.00 Z M 460.67,690.00 C 474.17,691.50 488.67,708.67 489.33,732.00 486.67,752.00 474.00,771.00 458.00,769.91 438.59,768.71 430.19,746.67 430.00,730.00 429.85,716.69 436.67,690.67 460.67,690.00 Z M 768.67,726.67 C 768.67,744.67 762.00,768.67 742.00,769.91 724.67,770.00 712.21,750.00 712.00,732.00 711.33,722.00 717.33,691.33 738.67,690.67 752.00,690.67 766.67,698.67 768.67,726.67 Z M 644.00,792.00 C 644.00,792.00 600.00,817.45 600.00,817.45 600.00,817.45 556.00,794.00 556.00,794.00 556.00,794.00 601.00,768.50 601.00,768.50 601.00,768.50 644.00,792.00 644.00,792.00 Z M 505.75,1059.25 C 500.00,1049.75 481.63,1048.90 479.02,1048.41 477.76,1046.79 479.00,962.75 479.00,962.75 479.01,957.24 479.07,945.06 480.83,940.00 488.10,919.17 507.16,906.03 529.00,906.00 529.00,906.00 671.00,906.75 671.00,906.75 677.16,906.76 684.49,907.95 690.25,910.25 703.16,915.40 713.94,928.44 718.00,941.75 721.30,952.56 720.75,1044.00 720.25,1048.00 710.96,1048.49 710.50,1050.25 706.25,1051.43 700.35,1053.36 692.00,1063.25 688.25,1070.75 684.75,1077.00 685.00,1089.75 688.00,1098.00 680.00,1095.25 676.25,1095.50 668.50,1095.83 658.50,1095.75 650.00,1102.25 645.75,1108.00 638.75,1115.25 635.50,1132.25 638.40,1143.39 632.75,1143.00 563.13,1143.19 561.25,1142.25 564.50,1128.25 562.20,1117.37 551.50,1104.25 541.20,1094.37 516.75,1093.75 511.00,1098.00 513.00,1089.25 518.25,1076.25 505.75,1059.25 Z" /></svg>
